/* XPM */
static char *_ab6f52120494b15e705a181a7442f53RmfJeHGoKlBoJoxW[] = {
/* columns rows colors chars-per-pixel */
"32 32 3 1 ",
"  c #9B1A0A",
". c #EF3A0C",
"X c white",
/* pixels */
"                                ",
"          X             X       ",
"          X             X       ",
"          X  . .  .     X       ",
"          X             X       ",
"          X             X       ",
"          X             X       ",
"          X             X       ",
"          X             X       ",
"XXXXXXXXXXXXXXXXXXXXXXXXXXXXXXXX",
"          X             X.......",
"  ....    X             X       ",
" .        X             X       ",
"          X             X       ",
"          X             X       ",
"          X             X       ",
"          X             X       ",
"          X       ....  X       ",
"          X           . X       ",
"          X             X       ",
"XXXXXXXXXXXXXXXXXXXXXXXXXXXXXXXX",
"          X             X       ",
"          X             X       ",
"          X             X   ... ",
" .        X             X ...   ",
" .....    X             X .     ",
"     .    X             X       ",
"          X             X       ",
"          X             X       ",
"          X             X       ",
"          X.....        X       ",
"                                "
};
