/* XPM */
static char *c907b592afdd40ac9fea60e1d6ab4487qJPobS8YE8yV5Xow[] = {
/* columns rows colors chars-per-pixel */
"32 32 7 1 ",
"  c black",
". c #183F39",
"X c #39571C",
"o c #EF3A0C",
"O c #AB5C1C",
"+ c #EFAC28",
"@ c white",
/* pixels */
"XXXXXXXXXXXXXXXXXXXXXXXXXXXXXXXX",
"XXXXXXXXXXXXXXXXXXXXXXXXXXXXXXXX",
"XXXXXXXXXXX        XXXXXXXXXXXXX",
"XXXXXXXXXX          XXXXXXXXXXXX",
"XXXXXXXXX            XXXXXXXXXXX",
"XXXXXXXX   @      @   XXXXXXXXXX",
"XXXXXXXX              XXXXXXXXXX",
"XXXXX+++              +++XXXXXXX",
"XXXXX+XX              XX+XXXXXXX",
"XXXXX+XX              XoooXXXXXX",
"XXXXoooXX   @@@@@@   XXoooXXXXXX",
"XXXXoooXXX          XXXXXXXXXXXX",
"XXXXXXXXXXX        XXXXXXXXXXXXX",
"XXXXXXXXXX+++....+++XXXXXXXXXXXX",
"XXXXXXXXXX+++....+++XXXXXXXXXXXX",
"XXXXXXXXXX+++....+++XXXXXXXXXXXX",
"XXXXXXXXX+++XXXXXX+++XXXXXXXXXXX",
"XXXXXXXXX+++XXXXXX+++XXXXXXXXXXX",
"XXXXXXXOOOOOXXXXXXOOOOOXXXXXXXXX",
"XXXXXXXOOOOOXXXXXXOOOOOXXXXXXXXX",
"XXXXXXXXXXXXXXXXXXXXXXXXXXXXXXXX",
"XXXXXXXXXXXXXXXXXXXXXXXXXXXXXXXX",
"XXXXXXXXXXXXXXXXXXXXXXXXXXXXXXXX",
"XXXXXXXXXXXXXXXXXXXXXXXXXXXXXXXX",
"XXXXXXXXXXXXXXXXXXXXXXXXXXXXXXXX",
"XXXXXXXXXXXXXXXXXXXXXXXXXXXXXXXX",
"XXXXXXXXXXXXXXXXXXXXXXXXXXXXXXXX",
"XXXXXXXXXXXXXXXXXXXXXXXXXXXXXXXX",
"XXXXXXXXXXXXXXXXXXXXXXXXXXXXXXXX",
"XXXXXXXXXXXXXXXXXXXXXXXXXXXXXXXX",
"XXXXXXXXXXXXXXXXXXXXXXXXXXXXXXXX",
"XXXXXXXXXXXXXXXXXXXXXXXXXXXXXXXX"
};
