/* XPM */
static char *_c3d4e72ac484524c9fdb8c81abd5a1dBXABX7jh4iOf8ZMe[] = {
/* columns rows colors chars-per-pixel */
"16 16 7 1 ",
"  c black",
". c #A22633",
"X c #3E8948",
"o c #FEAE34",
"O c #FEE761",
"+ c #124E89",
"@ c #0099DB",
/* pixels */
"++++++++++++++++",
"++++++++++++++++",
"+++++    +++++++",
"++++      ++++++",
"++++      ++++++",
"+++++OOOO+++++++",
"+++++OOOO+++@+++",
"++++++OO++++@+++",
"++++......++@+++",
"++++......+@@@++",
"++++...    ooo++",
"++++......++o+++",
"+++++X++X+++++++",
"+++++X++X+++++++",
"++++++++++++++++",
"++++++++++++++++"
};
