/* XPM */
static char *bd3933ccc1a24ddb91b4bc4fd2a56efa7wOnkZkbXswxs9h5[] = {
/* columns rows colors chars-per-pixel */
"16 16 2 1 ",
"  c #A22633",
". c white",
/* pixels */
"  .  .  .  .  . ",
"  .  .  .  .  . ",
"................",
"  .  .  .  .  . ",
"  .  .  .  .  . ",
"................",
"  .  .  .  .  . ",
"  .  .  .  .  . ",
"................",
"  .  .  .  .  . ",
"  .  .  .  .  . ",
"................",
"  .  .  .  .  . ",
"  .  .  .  .  . ",
"................",
"  .  .  .  .  . "
};
