/* XPM */
static char *_3c1f0fb5ac7482ba9617f3295f0d46fwQeXE3eBKtA3Ap3c[] = {
/* columns rows colors chars-per-pixel */
"64 64 7 1 ",
"  c None",
". c #A22633",
"X c #D77643",
"o c #FEE761",
"O c #124E89",
"+ c #0099DB",
"@ c #2CE8F5",
/* pixels */
"                                                                ",
"                                                                ",
"                                                                ",
"                                                                ",
"                                                                ",
"                                                                ",
"                                                                ",
"                                +@                              ",
"                               ++@                              ",
"                               ++@                              ",
"                              +++@                              ",
"                             ++++@                              ",
"                            ++@O+@                              ",
"                            ++@O+@                              ",
"                           +++@O+@                              ",
"                           +++@O+@                              ",
"                           ++@@O+@@                             ",
"                           ++@OO++@                             ",
"                           ++@@O++@                             ",
"                           +++@O++@@                            ",
"                           +++@O+++@                            ",
"                           +++@OO++@                            ",
"                            +++@O++@@                           ",
"                            +++@O+++@                           ",
"                            +++@OO++@                           ",
"                             ++@@O++@@                          ",
"                             +++@O+++@                          ",
"                              ++@OO++@                          ",
"                              ++@@O++@@                         ",
"                              +++@OO++@   XX                    ",
"                               ++@@O++@@  XXX                   ",
"                               +++@OO++@  XXX                   ",
"                                ++@@O++@@ XXX                   ",
"                                +++@OO++@XXXX                   ",
"                                 ++@@OO++XXXX                   ",
"                                  ++@@O++XXXX                   ",
"                                   ++@OXXXXX                    ",
"                              XXX  ++XXXXXXX                    ",
"                              XXXXXXXXXXXXX                     ",
"                                XXXXXXXXXXoo                    ",
"                                 XXXXXXXXoooo                   ",
"                                          oooo                  ",
"                                           oooo                 ",
"                                            oooXX               ",
"                                             ooXX               ",
"                                             XX.X               ",
"                                             XXXX               ",
"                                                                ",
"                                                                ",
"                                                                ",
"                                                                ",
"                                                                ",
"                                                                ",
"                                                                ",
"                                                                ",
"                                                                ",
"                                                                ",
"                                                                ",
"                                                                ",
"                                                                ",
"                                                                ",
"                                                                ",
"                                                                ",
"                                                                "
};
